<svg width="1374" height="600" viewBox="0 0 1374 600" fill="none" xmlns="http://www.w3.org/2000/svg">
<g filter="url(#filter0_d_1_6)">
<path d="M4.5 75H243.5V172.5H174V425H74V172.5H4.5V75ZM250.234 300C250.234 277.333 252.568 258.167 257.234 242.5C262.234 226.5 269.901 213.5 280.234 203.5C290.568 193.5 303.734 186.333 319.734 182C336.068 177.333 355.568 175 378.234 175H436.734V270H378.234C371.568 270 366.068 270.5 361.734 271.5C357.401 272.167 353.901 273.667 351.234 276C348.901 278 347.234 281 346.234 285C345.568 288.667 345.234 293.667 345.234 300V425H250.234V300ZM493.117 45C502.784 45 510.784 45.8333 517.117 47.5C523.784 49.1666 528.951 52 532.617 56C536.617 60 539.451 65.1667 541.117 71.5C542.784 77.8333 543.617 85.6667 543.617 95C543.617 104.333 542.784 112.333 541.117 119C539.451 125.333 536.617 130.5 532.617 134.5C528.951 138.5 523.784 141.333 517.117 143C510.784 144.667 502.784 145.5 493.117 145.5C473.784 145.5 460.451 141.833 453.117 134.5C446.117 126.833 442.617 113.667 442.617 95C442.617 85.6667 443.451 77.8333 445.117 71.5C446.784 65.1667 449.451 60 453.117 56C457.117 52 462.284 49.1666 468.617 47.5C475.284 45.8333 483.451 45 493.117 45ZM445.617 425V175H540.617V425H445.617ZM674.41 430C661.077 430 649.91 428.833 640.91 426.5C631.91 424.167 624.41 420.5 618.41 415.5C612.41 410.5 607.577 404 603.91 396C600.243 388 597.077 378.167 594.41 366.5L549.41 175H644.41L666.41 305.5C667.41 312.5 668.077 318.667 668.41 324C669.077 329 669.243 333.667 668.91 338C668.577 342.333 667.91 346.667 666.91 351C666.243 355 665.077 359.5 663.41 364.5C662.41 368.167 662.577 372 663.91 376C665.577 379.667 669.41 381.5 675.41 381.5C681.077 381.5 684.577 379.667 685.91 376C687.577 372 687.91 368.167 686.91 364.5C685.577 359.5 684.41 355 683.41 351C682.41 346.667 681.743 342.333 681.41 338C681.077 333.667 681.077 329 681.41 324C682.077 318.667 682.91 312.5 683.91 305.5L705.91 175H800.91L755.91 366.5C753.244 378.167 750.077 388 746.41 396C742.743 404 737.91 410.5 731.91 415.5C725.91 420.5 718.243 424.167 708.91 426.5C699.91 428.833 688.41 430 674.41 430ZM807.875 175H902.875V300C902.875 306.333 903.208 311.5 903.875 315.5C904.542 319.167 905.708 322.167 907.375 324.5C909.375 326.5 912.042 328 915.375 329C918.708 329.667 923.208 330 928.875 330C934.542 330 939.042 329.667 942.375 329C945.708 328 948.208 326.5 949.875 324.5C951.875 322.167 953.208 319.167 953.875 315.5C954.542 311.5 954.875 306.333 954.875 300V175H1049.88V295C1049.88 316.333 1048.04 335.167 1044.38 351.5C1040.71 367.5 1034.38 381 1025.38 392C1016.38 403 1004.04 411.333 988.375 417C972.708 422.333 952.875 425 928.875 425C923.208 425 918.708 425.167 915.375 425.5C912.042 425.833 909.375 426.5 907.375 427.5C905.708 428.5 904.542 430 903.875 432C903.542 434 903.375 436.667 903.375 440C903.375 446.667 905.375 450.833 909.375 452.5C913.708 454.167 922.542 455 935.875 455H1049.88V550H935.875C914.542 550 895.875 548.667 879.875 546C863.875 543.667 850.542 539.333 839.875 533C829.542 526.667 821.708 518 816.375 507C811.042 496 808.375 482 808.375 465C808.375 454.667 809.208 444.833 810.875 435.5C812.875 426.167 816.208 418 820.875 411C825.542 403.667 831.708 398 839.375 394C847.375 389.667 857.208 387.5 868.875 387.5C879.875 387.5 891.875 389.5 904.875 393.5C909.208 395.167 913.042 395 916.375 393C920.042 390.667 921.875 387 921.875 382C921.875 373.333 916.208 369.5 904.875 370.5C899.208 371.167 893.875 371.667 888.875 372C884.208 372.333 879.708 372.5 875.375 372.5C863.042 372.5 852.542 370.333 843.875 366C835.208 361.333 828.208 355.167 822.875 347.5C817.542 339.5 813.708 330.5 811.375 320.5C809.042 310.167 807.875 299.333 807.875 288V175Z" fill="url(#paint0_linear_1_6)"/>
</g>
<path d="M1236.57 0.00021294C1284.13 -0.113957 1370.71 45.703 1373.45 86.4362C1376.2 127.169 1367.91 129.68 1364.05 131.908H1319.41C1309.2 108.852 1296.78 95.3733 1264.18 95.6482C1231.59 95.9231 1195.83 136.733 1210.92 172.872C1226 209.012 1239.94 221.599 1258.5 260.68C1277.06 299.761 1283.26 358.793 1258.89 407.876L1203.87 408.856C1217.49 338.792 1145.39 276.369 1116.72 233.24C1088.06 190.111 1085.33 173.672 1085 137.984C1085.25 104.118 1097.51 70.2755 1124.17 42.7282C1150.83 15.1809 1189.01 0.114873 1236.57 0.00021294ZM1233.83 454.524C1270.63 454.524 1300.41 484.329 1300.41 521.164C1300.41 558 1270.63 588 1233.83 588C1197.03 588 1167.25 557.999 1167.25 521.164C1167.25 484.329 1197.03 454.524 1233.83 454.524Z" fill="url(#paint1_linear_1_6)"/>
<defs>
<filter id="filter0_d_1_6" x="0.5" y="45" width="1053.38" height="513" filterUnits="userSpaceOnUse" color-interpolation-filters="sRGB">
<feFlood flood-opacity="0" result="BackgroundImageFix"/>
<feColorMatrix in="SourceAlpha" type="matrix" values="0 0 0 0 0 0 0 0 0 0 0 0 0 0 0 0 0 0 127 0" result="hardAlpha"/>
<feOffset dy="4"/>
<feGaussianBlur stdDeviation="2"/>
<feComposite in2="hardAlpha" operator="out"/>
<feColorMatrix type="matrix" values="0 0 0 0 0 0 0 0 0 0 0 0 0 0 0 0 0 0 0.25 0"/>
<feBlend mode="normal" in2="BackgroundImageFix" result="effect1_dropShadow_1_6"/>
<feBlend mode="normal" in="SourceGraphic" in2="effect1_dropShadow_1_6" result="shape"/>
</filter>
<linearGradient id="paint0_linear_1_6" x1="59.5151" y1="600" x2="1006.29" y2="7.67674" gradientUnits="userSpaceOnUse">
<stop offset="0.235" stop-color="#14B8A6"/>
<stop offset="1" stop-color="#3B82F6"/>
</linearGradient>
<linearGradient id="paint1_linear_1_6" x1="1061.65" y1="-276" x2="1397.3" y2="1835.91" gradientUnits="userSpaceOnUse">
<stop stop-color="#3B82F6"/>
<stop offset="0.62" stop-color="#14B8A6"/>
</linearGradient>
</defs>
</svg>
